# xmcd
#
# Track frame offsets:
#       150
#       13710
#       21245
#       32737
#       46612
#       58227
#       69055
#       83002
#       98282
#       112202
#       127010
#       144207
#       156092
#       174312
#       189320
#       201880
#       212610
#       227665
#       240887
#       250180
#
# Disc length: 3463 seconds
#
# Revision: 0
# Processed by: cddbd v1.4PL0 Copyright (c) Steve Scherf et al.
#
# Submitted via: MusicManager v5.1.0.0
#
DISCID=f70d8514
DTITLE=Waylon Jennings and Willie Nelson - The Masters
DYEAR=1900
DGENRE=country
TTITLE0=Good Hearted Woman
TTITLE1=Heaven And Hell
TTITLE2=Mamma, Don't Let Your Babies Grow Up To Be Cowboys
TTITLE3=The Year 2003 Minus 25
TTITLE4=Pick Up The Tempo
TTITLE5=I Can Get Off On You
TTITLE6=Don't Cuss The Fiddle
TTITLE7=The Dock Of The Bay
TTITLE8=The Year That Clayton Delaney Died
TTITLE9=Write Your Own Song
TTITLE10=Mr Shuck And Jive
TTITLE11=Lookin' For A Feeling
TTITLE12=A Couple More Years
TTITLE13=Lickenbach Texas
TTITLE14=Mr Record Man
TTITLE15=The Taker
TTITLE16=Little Things
TTITLE17=Are You Sure Hank Done It This way
TTITLE18=Blackjack County Chain
TTITLE19=Good Ol' Boys
EXTD=
EXTT0=
EXTT1=
EXTT2=
EXTT3=
EXTT4=
EXTT5=
EXTT6=
EXTT7=
EXTT8=
EXTT9=
EXTT10=
EXTT11=
EXTT12=
EXTT13=
EXTT14=
EXTT15=
EXTT16=
EXTT17=
EXTT18=
EXTT19=
PLAYORDER=
